<svg width="17" height="16" viewBox="0 0 17 16" fill="none" xmlns="http://www.w3.org/2000/svg">
<g clip-path="url(#clip0_12_4214)">
<path d="M8.49998 2.66666C9.06998 2.66666 9.65465 2.68132 10.2213 2.70532L10.8906 2.73732L11.5313 2.77532L12.1313 2.81599L12.6793 2.85866C13.274 2.90417 13.8336 3.15795 14.2597 3.57535C14.6857 3.99274 14.9509 4.54702 15.0086 5.14066L15.0353 5.42399L15.0853 6.03066C15.132 6.65932 15.1666 7.34466 15.1666 7.99999C15.1666 8.65532 15.132 9.34066 15.0853 9.96932L15.0353 10.576C15.0266 10.6733 15.018 10.7673 15.0086 10.8593C14.9509 11.4531 14.6856 12.0074 14.2594 12.4248C13.8332 12.8422 13.2735 13.096 12.6786 13.1413L12.132 13.1833L11.532 13.2247L10.8906 13.2627L10.2213 13.2947C9.64787 13.3196 9.07397 13.3325 8.49998 13.3333C7.92599 13.3325 7.35209 13.3196 6.77865 13.2947L6.10931 13.2627L5.46865 13.2247L4.86865 13.1833L4.32065 13.1413C3.72595 13.0958 3.16635 12.842 2.74029 12.4246C2.31424 12.0072 2.04903 11.453 1.99131 10.8593L1.96465 10.576L1.91465 9.96932C1.86367 9.31408 1.83654 8.6572 1.83331 7.99999C1.83331 7.34466 1.86798 6.65932 1.91465 6.03066L1.96465 5.42399C1.97331 5.32666 1.98198 5.23266 1.99131 5.14066C2.04901 4.54712 2.31412 3.99293 2.74004 3.57555C3.16596 3.15817 3.7254 2.90432 4.31998 2.85866L4.86731 2.81599L5.46731 2.77532L6.10865 2.73732L6.77798 2.70532C7.35165 2.68041 7.92577 2.66752 8.49998 2.66666ZM8.49998 3.99999C7.94998 3.99999 7.38398 4.01466 6.83331 4.03732L6.18131 4.06866L5.55531 4.10532L4.96731 4.14532L4.42865 4.18732C4.14553 4.20741 3.87868 4.32709 3.67537 4.52514C3.47207 4.72319 3.34546 4.98683 3.31798 5.26932C3.23998 6.07532 3.16665 7.07866 3.16665 7.99999C3.16665 8.92132 3.23998 9.92466 3.31798 10.7307C3.37465 11.312 3.83598 11.764 4.42865 11.8127L4.96731 11.854L5.55531 11.894L6.18131 11.9313L6.83331 11.9627C7.38398 11.9853 7.94998 12 8.49998 12C9.04998 12 9.61598 11.9853 10.1666 11.9627L10.8186 11.9313L11.4446 11.8947L12.0326 11.8547L12.5713 11.8127C12.8544 11.7926 13.1213 11.6729 13.3246 11.4748C13.5279 11.2768 13.6545 11.0131 13.682 10.7307C13.76 9.92466 13.8333 8.92132 13.8333 7.99999C13.8333 7.07866 13.76 6.07532 13.682 5.26932C13.6545 4.98683 13.5279 4.72319 13.3246 4.52514C13.1213 4.32709 12.8544 4.20741 12.5713 4.18732L12.0326 4.14599L11.4446 4.10599L10.8186 4.06866L10.1666 4.03732C9.61141 4.01343 9.05573 4.00099 8.49998 3.99999ZM7.16665 6.38332C7.1666 6.31817 7.18248 6.25398 7.21289 6.19636C7.2433 6.13873 7.28733 6.08941 7.34115 6.05268C7.39497 6.01595 7.45694 5.99292 7.52169 5.98559C7.58643 5.97827 7.65198 5.98687 7.71265 6.01066L7.76665 6.03732L10.5666 7.65332C10.6224 7.68549 10.6696 7.73065 10.7041 7.78495C10.7387 7.83925 10.7597 7.90109 10.7652 7.96522C10.7708 8.02935 10.7608 8.09388 10.7361 8.15332C10.7114 8.21276 10.6727 8.26537 10.6233 8.30666L10.5666 8.34666L7.76665 9.96332C7.71022 9.996 7.64666 10.0144 7.58151 10.0169C7.51635 10.0194 7.45158 10.0059 7.39282 9.97764C7.33406 9.94938 7.2831 9.90718 7.24438 9.85472C7.20565 9.80226 7.18034 9.74113 7.17065 9.67666L7.16665 9.61666V6.38332Z" fill="#FF4848"/>
</g>
<defs>
<clipPath id="clip0_12_4214">
<rect width="16" height="16" fill="white" transform="translate(0.5)"/>
</clipPath>
</defs>
</svg>
