<svg width="16" height="16" viewBox="0 0 16 16" fill="none" xmlns="http://www.w3.org/2000/svg">
<g clip-path="url(#clip0_12_1395)">
<path fill-rule="evenodd" clip-rule="evenodd" d="M8.00001 0.666672C3.95005 0.666672 0.666672 3.95005 0.666672 8.00001C0.666672 12.05 3.95005 15.3333 8.00001 15.3333C12.05 15.3333 15.3333 12.05 15.3333 8.00001C15.3333 3.95005 12.05 0.666672 8.00001 0.666672ZM7.93352 1.64445C7.08969 1.65325 6.28596 1.82632 5.55116 2.13334H6.28938C6.42627 2.13334 6.53872 2.24578 6.53383 2.38267C6.52894 2.51956 6.65605 2.62223 6.78805 2.62223H6.87116C6.96405 2.62223 7.04716 2.56845 7.08627 2.48534L7.31116 2.04045C7.3693 1.92437 7.45785 1.82623 7.56736 1.7565C7.67687 1.68676 7.80374 1.64804 7.93352 1.64445ZM2.98987 4.08889C2.11598 5.2051 1.64219 6.58241 1.64445 8.00001C1.64445 11.5102 4.48978 14.3556 8.00001 14.3556C11.5102 14.3556 14.3556 11.5102 14.3556 8.00001C14.3556 6.49032 13.8295 5.10383 12.9505 4.01361C12.8167 3.96504 12.6918 3.89467 12.5809 3.80534L10.7085 2.30934C10.5667 2.19689 10.3858 2.13334 10.2049 2.13334H9.50089C9.30534 2.13334 9.21245 2.36801 9.35423 2.50489L9.408 2.55867C9.44712 2.59778 9.50089 2.62223 9.55956 2.62223H9.64756C9.81378 2.62223 9.95067 2.75423 9.95556 2.92045C9.96045 3.03778 9.99956 3.15512 10.0876 3.23823L10.376 3.52667C10.42 3.57556 10.4836 3.60001 10.5471 3.60001H11.1778C11.3147 3.60001 11.4222 3.70756 11.4222 3.84445C11.4222 3.98134 11.3147 4.08889 11.1778 4.08889H10.5813C10.4982 4.08889 10.4151 4.13289 10.376 4.20623L9.08534 6.35734C9.012 6.47467 8.97778 6.60667 8.97778 6.74356C8.97778 6.90001 8.85067 7.02223 8.69423 7.02223H8.58178C8.55715 7.02223 8.53352 7.01244 8.5161 6.99502C8.49868 6.9776 8.48889 6.95397 8.48889 6.92934C8.48889 6.70934 8.31289 6.53334 8.09289 6.53334H7.63823C7.29601 6.53334 7.02223 6.80712 7.02223 7.14934V7.57467C7.02223 7.80934 7.21289 8.00001 7.44756 8.00978H7.50134L7.51112 8.00001H7.74578C7.88267 8.00001 8.00001 7.93645 8.00001 7.79956V7.75556C8.00001 7.61867 8.10756 7.51112 8.24445 7.51112C8.38134 7.51112 8.48889 7.61867 8.48889 7.75556V7.79956C8.48889 7.91201 8.58178 8.00001 8.68934 8.00001H8.77245C8.88489 8.00001 8.97289 8.09289 8.97289 8.20045C8.97289 8.35689 9.10001 8.48889 9.26134 8.48889H10.5422C10.7965 8.48889 11.0458 8.54756 11.2756 8.66001L11.5151 8.77734C11.7547 8.89956 11.9062 9.144 11.9062 9.41289V9.66712C11.9062 9.82356 12.0333 9.95067 12.1898 9.95067H12.3071C12.6249 9.95067 12.884 10.2098 12.884 10.5324V10.7231C12.884 10.86 12.8351 10.992 12.752 11.0947L10.5422 13.7493C10.4787 13.8227 10.3858 13.8667 10.288 13.8667C10.1022 13.8667 9.95556 13.72 9.95556 13.5342V11.7498C9.95556 11.5689 9.80889 11.4222 9.62801 11.4222C9.27112 11.4222 8.97778 11.1289 8.97778 10.772V9.76978C8.97778 9.60356 9.10978 9.47156 9.27601 9.47156C9.37867 9.47156 9.46667 9.38845 9.46667 9.2809V9.22223C9.46667 9.08534 9.35912 8.97778 9.22223 8.97778H8.55734C8.51334 8.97778 8.46934 8.96801 8.43023 8.94845L7.06721 8.49378C7.01009 8.48761 6.95394 8.47448 6.90001 8.45467L5.98578 8.14178C5.75112 8.06356 5.59467 7.84356 5.59467 7.59423V7.36445C5.59467 7.20801 5.53601 7.05645 5.42845 6.94401L4.96889 6.46001C4.71956 6.19601 4.57778 5.84401 4.57778 5.48223V5.00801C4.57778 4.49956 4.16712 4.08889 3.65867 4.08889H2.98987Z" fill="white"/>
</g>
<defs>
<clipPath id="clip0_12_1395">
<rect width="16" height="16" fill="white"/>
</clipPath>
</defs>
</svg>
