<svg width="24" height="24" viewBox="0 0 24 24" fill="none" xmlns="http://www.w3.org/2000/svg">
<path fill-rule="evenodd" clip-rule="evenodd" d="M6.77892 9.82512C6.77892 8.45701 7.329 7.14494 8.30813 6.17754C9.28727 5.21014 10.6153 4.66666 12 4.66666C13.3847 4.66666 14.7127 5.21014 15.6918 6.17754C16.671 7.14494 17.221 8.45701 17.221 9.82512V12.5989L18.58 15.2842C18.6426 15.4078 18.6721 15.5452 18.6658 15.6832C18.6595 15.8213 18.6176 15.9554 18.5441 16.073C18.4706 16.1905 18.3678 16.2876 18.2457 16.3548C18.1235 16.4221 17.9859 16.4574 17.8461 16.4574H14.8895C14.7236 17.0899 14.3498 17.65 13.8268 18.0498C13.3038 18.4497 12.6613 18.6667 12 18.6667C11.3387 18.6667 10.6961 18.4497 10.1732 18.0498C9.65018 17.65 9.27641 17.0899 9.1105 16.4574H6.15389C6.01402 16.4574 5.87647 16.4221 5.7543 16.3548C5.63213 16.2876 5.5294 16.1905 5.45586 16.073C5.38233 15.9554 5.34043 15.8213 5.33414 15.6832C5.32786 15.5452 5.3574 15.4078 5.41995 15.2842L6.77892 12.5989V9.82512ZM10.7081 16.4574C10.8391 16.6814 11.0274 16.8675 11.2541 16.9968C11.4809 17.1262 11.7381 17.1943 12 17.1943C12.2618 17.1943 12.519 17.1262 12.7458 16.9968C12.9726 16.8675 13.1609 16.6814 13.2918 16.4574H10.7081ZM12 6.14051C11.0109 6.14051 10.0623 6.52871 9.36295 7.2197C8.66356 7.9107 8.27065 8.8479 8.27065 9.82512V12.5989C8.27064 12.8276 8.21676 13.0531 8.11328 13.2577L7.24061 14.9836H16.7601L15.8874 13.2577C15.7837 13.0532 15.7296 12.8276 15.7293 12.5989V9.82512C15.7293 8.8479 15.3364 7.9107 14.637 7.2197C13.9376 6.52871 12.9891 6.14051 12 6.14051Z" fill="#6FAA54"/>
</svg>
