<svg width="10" height="10" viewBox="0 0 10 10" fill="none" xmlns="http://www.w3.org/2000/svg">
<g clip-path="url(#clip0_12_1857)">
<path fill-rule="evenodd" clip-rule="evenodd" d="M4.45834 8.16717C4.51317 8.26227 4.59208 8.34125 4.68714 8.39617C4.78219 8.45109 4.89003 8.48 4.9998 8.48C5.10958 8.48 5.21742 8.45109 5.31247 8.39617C5.40752 8.34125 5.48643 8.26227 5.54126 8.16717L9.13876 1.93633C9.19362 1.84132 9.2225 1.73355 9.2225 1.62384C9.2225 1.51413 9.19362 1.40635 9.13877 1.31134C9.08391 1.21633 9.00502 1.13743 8.91001 1.08257C8.815 1.02772 8.70722 0.998836 8.59751 0.998833H1.40251C1.2928 0.998836 1.18503 1.02772 1.09002 1.08257C0.995007 1.13743 0.91611 1.21633 0.861257 1.31134C0.806404 1.40635 0.777526 1.51413 0.777527 1.62384C0.777528 1.73355 0.806406 1.84132 0.861261 1.93633L4.45876 8.16717H4.45834Z" fill="white"/>
</g>
<defs>
<clipPath id="clip0_12_1857">
<rect width="10" height="10" fill="white"/>
</clipPath>
</defs>
</svg>
