<svg width="11" height="11" viewBox="0 0 11 11" fill="none" xmlns="http://www.w3.org/2000/svg">
<g clip-path="url(#clip0_1_9826)">
<path fill-rule="evenodd" clip-rule="evenodd" d="M4.95834 8.66715C5.01317 8.76225 5.09208 8.84123 5.18714 8.89615C5.28219 8.95107 5.39003 8.97998 5.4998 8.97998C5.60958 8.97998 5.71742 8.95107 5.81247 8.89615C5.90752 8.84123 5.98643 8.76225 6.04126 8.66715L9.63876 2.43631C9.69362 2.3413 9.7225 2.23353 9.7225 2.12382C9.7225 2.01411 9.69362 1.90633 9.63877 1.81132C9.58391 1.71631 9.50502 1.63741 9.41001 1.58255C9.315 1.5277 9.20722 1.49882 9.09751 1.49881H1.90251C1.7928 1.49882 1.68503 1.5277 1.59002 1.58255C1.49501 1.63741 1.41611 1.71631 1.36126 1.81132C1.3064 1.90633 1.27753 2.01411 1.27753 2.12382C1.27753 2.23353 1.30641 2.3413 1.36126 2.43631L4.95876 8.66715H4.95834Z" fill="#FF4848"/>
</g>
<defs>
<clipPath id="clip0_1_9826">
<rect width="10" height="10" fill="white" transform="translate(0.5 0.5)"/>
</clipPath>
</defs>
</svg>
