<svg width="24" height="24" viewBox="0 0 24 24" fill="none" xmlns="http://www.w3.org/2000/svg">
<path fill-rule="evenodd" clip-rule="evenodd" d="M6.79303 6.793C6.98056 6.60553 7.23487 6.50021 7.50003 6.50021C7.76519 6.50021 8.0195 6.60553 8.20703 6.793L12 10.586L15.793 6.793C15.8853 6.69749 15.9956 6.62131 16.1176 6.5689C16.2396 6.51649 16.3709 6.4889 16.5036 6.48775C16.6364 6.4866 16.7681 6.5119 16.891 6.56218C17.0139 6.61246 17.1255 6.68671 17.2194 6.78061C17.3133 6.8745 17.3876 6.98615 17.4379 7.10905C17.4881 7.23194 17.5134 7.36362 17.5123 7.4964C17.5111 7.62918 17.4835 7.7604 17.4311 7.88241C17.3787 8.00441 17.3025 8.11475 17.207 8.207L13.414 12L17.207 15.793C17.3892 15.9816 17.49 16.2342 17.4877 16.4964C17.4854 16.7586 17.3803 17.0094 17.1948 17.1948C17.0094 17.3802 16.7586 17.4854 16.4964 17.4877C16.2342 17.49 15.9816 17.3892 15.793 17.207L12 13.414L8.20703 17.207C8.01843 17.3892 7.76583 17.49 7.50363 17.4877C7.24143 17.4854 6.99062 17.3802 6.80521 17.1948C6.6198 17.0094 6.51463 16.7586 6.51236 16.4964C6.51008 16.2342 6.61087 15.9816 6.79303 15.793L10.586 12L6.79303 8.207C6.60556 8.01947 6.50024 7.76517 6.50024 7.5C6.50024 7.23484 6.60556 6.98053 6.79303 6.793Z" fill="white"/>
</svg>
