<svg width="16" height="16" viewBox="0 0 16 16" fill="none" xmlns="http://www.w3.org/2000/svg">
<g clip-path="url(#clip0_12_4266)">
<path d="M7.99998 2.66666C8.56998 2.66666 9.15465 2.68132 9.72131 2.70532L10.3906 2.73732L11.0313 2.77532L11.6313 2.81599L12.1793 2.85866C12.774 2.90417 13.3336 3.15795 13.7597 3.57535C14.1857 3.99274 14.4509 4.54702 14.5086 5.14066L14.5353 5.42399L14.5853 6.03066C14.632 6.65932 14.6666 7.34466 14.6666 7.99999C14.6666 8.65532 14.632 9.34066 14.5853 9.96932L14.5353 10.576C14.5266 10.6733 14.518 10.7673 14.5086 10.8593C14.4509 11.4531 14.1856 12.0074 13.7594 12.4248C13.3332 12.8422 12.7735 13.096 12.1786 13.1413L11.632 13.1833L11.032 13.2247L10.3906 13.2627L9.72131 13.2947C9.14787 13.3196 8.57397 13.3325 7.99998 13.3333C7.42599 13.3325 6.85209 13.3196 6.27865 13.2947L5.60931 13.2627L4.96865 13.2247L4.36865 13.1833L3.82065 13.1413C3.22595 13.0958 2.66635 12.842 2.24029 12.4246C1.81424 12.0072 1.54903 11.453 1.49131 10.8593L1.46465 10.576L1.41465 9.96932C1.36367 9.31408 1.33654 8.6572 1.33331 7.99999C1.33331 7.34466 1.36798 6.65932 1.41465 6.03066L1.46465 5.42399C1.47331 5.32666 1.48198 5.23266 1.49131 5.14066C1.54901 4.54712 1.81412 3.99293 2.24004 3.57555C2.66596 3.15817 3.2254 2.90432 3.81998 2.85866L4.36731 2.81599L4.96731 2.77532L5.60865 2.73732L6.27798 2.70532C6.85165 2.68041 7.42577 2.66752 7.99998 2.66666ZM7.99998 3.99999C7.44998 3.99999 6.88398 4.01466 6.33331 4.03732L5.68131 4.06866L5.05531 4.10532L4.46731 4.14532L3.92865 4.18732C3.64553 4.20741 3.37868 4.32709 3.17537 4.52514C2.97207 4.72319 2.84546 4.98683 2.81798 5.26932C2.73998 6.07532 2.66665 7.07866 2.66665 7.99999C2.66665 8.92132 2.73998 9.92466 2.81798 10.7307C2.87465 11.312 3.33598 11.764 3.92865 11.8127L4.46731 11.854L5.05531 11.894L5.68131 11.9313L6.33331 11.9627C6.88398 11.9853 7.44998 12 7.99998 12C8.54998 12 9.11598 11.9853 9.66665 11.9627L10.3186 11.9313L10.9446 11.8947L11.5326 11.8547L12.0713 11.8127C12.3544 11.7926 12.6213 11.6729 12.8246 11.4748C13.0279 11.2768 13.1545 11.0131 13.182 10.7307C13.26 9.92466 13.3333 8.92132 13.3333 7.99999C13.3333 7.07866 13.26 6.07532 13.182 5.26932C13.1545 4.98683 13.0279 4.72319 12.8246 4.52514C12.6213 4.32709 12.3544 4.20741 12.0713 4.18732L11.5326 4.14599L10.9446 4.10599L10.3186 4.06866L9.66665 4.03732C9.11141 4.01343 8.55573 4.00099 7.99998 3.99999ZM6.66665 6.38332C6.6666 6.31817 6.68248 6.25398 6.71289 6.19636C6.7433 6.13873 6.78733 6.08941 6.84115 6.05268C6.89497 6.01595 6.95694 5.99292 7.02169 5.98559C7.08643 5.97827 7.15198 5.98687 7.21265 6.01066L7.26665 6.03732L10.0666 7.65332C10.1224 7.68549 10.1696 7.73065 10.2041 7.78495C10.2387 7.83925 10.2597 7.90109 10.2652 7.96522C10.2708 8.02935 10.2608 8.09388 10.2361 8.15332C10.2114 8.21276 10.1727 8.26537 10.1233 8.30666L10.0666 8.34666L7.26665 9.96332C7.21022 9.996 7.14666 10.0144 7.08151 10.0169C7.01635 10.0194 6.95158 10.0059 6.89282 9.97764C6.83406 9.94938 6.7831 9.90718 6.74438 9.85472C6.70565 9.80226 6.68034 9.74113 6.67065 9.67666L6.66665 9.61666V6.38332Z" fill="#FF4848"/>
</g>
<defs>
<clipPath id="clip0_12_4266">
<rect width="16" height="16" fill="white"/>
</clipPath>
</defs>
</svg>
