<svg width="11" height="11" viewBox="0 0 11 11" fill="none" xmlns="http://www.w3.org/2000/svg">
<g clip-path="url(#clip0_1_9821)">
<path fill-rule="evenodd" clip-rule="evenodd" d="M4.95834 1.81167C5.01317 1.71657 5.09208 1.63759 5.18714 1.58267C5.28219 1.52775 5.39003 1.49884 5.4998 1.49884C5.60958 1.49884 5.71742 1.52775 5.81247 1.58267C5.90752 1.63759 5.98643 1.71657 6.04126 1.81167L9.63876 8.04251C9.69362 8.13752 9.7225 8.24529 9.7225 8.355C9.7225 8.46471 9.69362 8.57249 9.63877 8.6675C9.58391 8.76251 9.50502 8.84141 9.41001 8.89627C9.315 8.95112 9.20722 8.98 9.09751 8.98001H1.90251C1.7928 8.98 1.68503 8.95112 1.59002 8.89627C1.49501 8.84141 1.41611 8.76251 1.36126 8.6675C1.3064 8.57249 1.27753 8.46471 1.27753 8.355C1.27753 8.24529 1.30641 8.13752 1.36126 8.04251L4.95876 1.81167H4.95834Z" fill="#018000"/>
</g>
<defs>
<clipPath id="clip0_1_9821">
<rect width="10" height="10" fill="white" transform="translate(0.5 0.5)"/>
</clipPath>
</defs>
</svg>
