<svg width="184" height="25" viewBox="0 0 184 25" fill="none" xmlns="http://www.w3.org/2000/svg">
<path fill-rule="evenodd" clip-rule="evenodd" d="M82.9827 1.26982C82.6271 1.42377 81.761 3.42517 81.0581 5.71713C80.3558 8.00908 79.6197 9.88452 79.4228 9.88452C78.9654 9.88452 76.7162 4.62154 76.7162 3.55114C76.7162 2.15323 75.2231 1.41258 72.7676 1.59284C70.2435 1.77815 70.0887 2.02503 69.3023 7.11951C69.1806 7.90831 68.8145 9.54582 68.4893 10.7584C67.2007 15.5607 65.6556 22.4679 65.6556 23.4269C65.6556 24.3002 66.1494 24.4402 69.2254 24.4402H72.7947L73.1448 22.3408C73.9561 17.4719 74.576 17.2821 75.7949 21.5285C76.5371 24.116 76.5918 24.1631 79.0257 24.3271C81.7052 24.5073 81.7632 24.4396 83.9621 18.5619C84.6661 16.6803 84.837 16.939 85.8004 21.3432L86.417 24.1603L90.4149 24.3248C93.9538 24.4704 94.4128 24.3735 94.4067 23.4851C94.3973 22.0592 93.2194 18.0525 90.1616 9.04477L87.5004 1.20712L85.5648 1.09795C84.5002 1.03805 83.3383 1.11531 82.9827 1.26982ZM113.217 1.4624L105.751 1.76695L105.599 11.7706C105.436 22.5894 105.603 23.3205 108.248 23.3205C109.1 23.3205 109.922 23.6934 110.099 24.1603C110.353 24.8315 111.561 25 116.12 25H121.823L122.549 22.5121C123.562 19.0417 123.183 18.6912 118.922 19.1537C116.399 19.4269 114.943 19.3278 114.001 18.8172C112.217 17.8509 112.212 16.0427 113.994 16.0427C115.053 16.0427 115.266 15.8137 115.036 14.923C114.618 13.3045 115.359 13.5453 115.993 15.2337C116.48 16.5297 116.778 16.6479 119.159 16.4933L121.789 16.3226L121.743 13.9741C121.68 10.698 120.812 9.81958 117.994 10.1779C115.378 10.511 112.663 9.57997 112.663 8.35058C112.663 7.63568 113.451 7.57185 118.001 7.91727L123.338 8.32203L123.009 5.09683C122.724 2.30327 121.905 0.686474 120.959 1.05092C120.807 1.10915 117.323 1.29445 113.217 1.4624ZM174.971 2.90565C172.12 5.87724 170.925 10.6599 172.668 12.1239C173.124 12.5073 173.497 13.1467 173.497 13.5453C173.497 13.9439 173.809 14.3749 174.189 14.5031C174.608 14.6448 174.88 15.7476 174.88 17.304C174.88 19.2645 174.557 20.2196 173.512 21.3454C172.359 22.5877 172.272 22.9029 172.959 23.3502C174.418 24.2997 178.039 25.0918 179.372 24.7526C180.884 24.3685 183.992 19.3009 184 17.2071C184.003 16.462 183.219 14.1264 182.259 12.0169C180.378 7.88648 180.455 7.07024 182.987 4.31923C184.271 2.92468 184.293 1.7524 183.037 1.64099C182.505 1.59396 180.926 1.3857 179.529 1.17801C177.115 0.820274 176.889 0.905928 174.971 2.90565ZM96.0183 1.72888C95.8629 1.8862 95.7888 7.12343 95.8535 13.3672L95.9713 24.7201L97.5424 24.8701C98.4068 24.9524 100.19 24.8265 101.507 24.5902L103.898 24.1603L103.948 12.9636L103.998 1.76695L100.149 1.6046C98.0324 1.51559 96.1737 1.57157 96.0183 1.72888ZM125.31 2.74666C125.198 3.43973 125.107 8.54092 125.107 14.0833V24.1603H131.974C136.977 24.1603 138.904 23.9705 139.071 23.4605C139.198 23.0753 139.532 22.7607 139.813 22.7607C140.861 22.7607 143.654 19.7107 144.8 17.3157C146.099 14.5983 146.294 10.6716 145.23 8.62658C143.955 6.17283 140.05 2.73994 137.825 2.11461C136.609 1.77255 133.341 1.49207 130.564 1.49039C125.753 1.48703 125.503 1.54694 125.31 2.74666ZM155.8 2.12916C154.431 2.37885 152.747 2.8855 152.058 3.25443C149.363 4.69711 146.302 10.4444 148.228 10.4444C148.692 10.4444 149.186 10.1297 149.325 9.74456C149.528 9.18473 149.725 9.18473 150.311 9.74456C151.443 10.8256 154.208 10.5759 155.582 9.26871C158.812 6.19746 164.419 9.47584 163.561 13.9332C163.138 16.1278 161.576 17.7222 159.85 17.7222C158.004 17.7222 154.703 15.5243 154.698 14.2915C154.696 13.7905 154.321 13.0672 153.865 12.6837C153.232 12.1518 153.035 12.1462 153.035 12.6596C153.035 13.1226 152.494 13.2122 151.301 12.9468C149.647 12.579 149.584 12.6288 149.929 14.0222C150.348 15.7113 149.943 15.8635 148.513 14.553C147.079 13.2396 146.767 13.8884 147.554 16.5482C148.267 18.9583 148.831 19.4078 149.367 17.9948C149.646 17.2581 149.833 17.2738 150.809 18.1191C152.133 19.2668 152.246 19.9615 151.111 19.9615C149.649 19.9615 151.35 22.6403 153.25 23.33C154.196 23.6743 156.713 24.078 158.842 24.228C162.44 24.481 162.897 24.3803 165.325 22.7993C169.007 20.401 170.369 17.5251 170.417 12.0399C170.453 8.06283 170.333 7.60264 168.746 5.6018C166.845 3.2046 165.369 2.3223 162.303 1.75016C160.469 1.4081 160.174 1.51447 159.711 2.68508C159.348 3.60152 159.178 3.71629 159.153 3.0596C159.105 1.73896 158.643 1.61076 155.8 2.12916ZM136.002 9.74456C138.639 12.5958 138.501 15.0193 135.592 16.9485C133.351 18.4348 132.573 17.2446 132.573 12.3355C132.573 8.72007 132.698 8.20502 133.575 8.20502C134.127 8.20502 135.218 8.8981 136.002 9.74456ZM160.89 11.5892C160.519 12.191 160.44 12.6837 160.714 12.6837C161.21 12.6837 162.065 11.0014 161.738 10.6694C161.642 10.5737 161.261 10.9874 160.89 11.5892ZM134.868 12.1966C134.276 13.1579 134.278 13.2833 134.882 12.9149C135.457 12.565 135.451 12.673 134.856 13.4159C134.206 14.2266 134.216 14.3632 134.929 14.3632C135.838 14.3632 136.66 12.1183 135.997 11.4476C135.771 11.2192 135.263 11.5562 134.868 12.1966ZM146.952 12.4721C146.952 13.2497 147.091 13.2726 147.919 12.6305C148.452 12.2185 148.991 11.8098 149.118 11.7225C149.245 11.6351 148.809 11.564 148.15 11.564C147.413 11.564 146.952 11.9139 146.952 12.4721ZM156.492 11.9346C156.112 12.0903 155.8 12.4659 155.8 12.7705C155.8 13.613 157.459 15.1094 157.9 14.6638C158.112 14.4483 157.79 13.884 157.182 13.4098C156.138 12.5952 156.183 12.5672 157.994 12.9059C159.779 13.2396 159.836 13.2071 158.823 12.4318C157.65 11.5338 157.534 11.5092 156.492 11.9346ZM74.1197 14.3951C74.3089 15.1279 74.1811 15.4672 73.7691 15.3283C72.9739 15.0602 72.5585 13.2435 73.293 13.2435C73.5839 13.2435 73.956 13.7619 74.1197 14.3951ZM160.478 13.8409C160.278 14.1689 160.247 14.572 160.409 14.7366C160.805 15.1374 161.884 14.4309 161.884 13.7703C161.884 13.0549 160.929 13.1024 160.478 13.8409Z" fill="white"/>
<path fill-rule="evenodd" clip-rule="evenodd" d="M0.3648 1.37943C0.0622903 1.87544 -0.155052 23.8433 0.140268 24.0941C0.240367 24.1792 2.00234 24.4165 4.05575 24.6209L7.78874 24.9932V21.1298V17.2664L10.4698 17.006C15.096 16.5559 17.1903 14.1654 17.1903 9.33577C17.1903 6.78741 16.0334 4.35774 14.1674 2.98839C12.5371 1.79146 0.93885 0.439468 0.3648 1.37943ZM23.3262 1.51491C21.0737 1.77915 19.0828 2.14528 18.902 2.3289C18.7211 2.51197 18.548 7.56334 18.5182 13.5547L18.4629 24.4479L22.3894 24.285L26.3154 24.1221L26.4824 21.1829C26.5748 19.5661 26.8419 18.2438 27.0769 18.2438C27.312 18.2438 28.4811 19.6316 29.6751 21.3279C32.0371 24.6841 32.9015 25.1258 36.5864 24.8588C39.8094 24.6254 39.8985 23.7481 37.1211 19.6093C35.894 17.7808 34.8896 16.0442 34.8885 15.7514C34.888 15.4581 35.6965 14.3726 36.6848 13.3397C38.2598 11.6938 38.4716 11.1172 38.3981 8.67964C38.2952 5.28034 37.2091 3.49335 34.3482 2.01596C32.015 0.810637 30.076 0.722744 23.3262 1.51491ZM29.5943 7.36684C30.8116 8.59959 30.6761 10.5624 29.314 11.4234C27.6737 12.4602 26.5919 11.3612 26.5919 8.65837C26.5919 6.88762 26.7882 6.48734 27.6587 6.48734C28.2449 6.48734 29.116 6.88314 29.5943 7.36684ZM10.2951 9.34248C10.7917 10.9274 9.73597 11.9838 8.46454 11.1731C7.40327 10.4963 6.97965 9.09056 7.45747 7.82982C7.8822 6.70959 9.78796 7.72513 10.2951 9.34248Z" fill="white"/>
<rect width="22.1214" height="22.3933" transform="translate(41.3221 1.55983)" fill="#13432F"/>
<ellipse cx="52.3827" cy="12.7565" rx="11.9824" ry="12.1297" fill="#6FAA54"/>
<path d="M60.0279 20.3922C64.2501 16.1414 64.2501 9.24948 60.0279 4.99868C55.8057 0.747879 48.9602 0.747879 44.738 4.99868C40.5158 9.24948 40.5158 16.1414 44.738 20.3922C48.9602 24.643 55.8057 24.643 60.0279 20.3922Z" fill="#12472E"/>
<path d="M52.3827 1.55983C46.2839 1.55983 41.3221 6.55528 41.3221 12.6954C41.3221 18.8356 46.2839 23.831 52.3827 23.831C58.4816 23.831 63.4434 18.8356 63.4434 12.6954C63.4434 6.55528 58.4816 1.55983 52.3827 1.55983ZM43.3524 16.3694C42.159 14.4943 41.988 12.454 41.9725 12.236C42.6285 9.90375 43.7755 8.71777 44.0021 8.5005C45.2173 8.67026 46.7387 8.72711 47.1865 8.74035C47.137 9.33762 47.2175 11.2019 48.6329 13.4118C48.3877 13.7412 47.3513 15.1889 46.6234 17.0858C44.5343 17.3101 43.4692 16.4675 43.3524 16.3686V16.3694ZM55.3134 6.4922C55.6561 7.61199 56.6338 10.142 56.7977 10.5649C55.472 12.5218 53.8144 13.8767 53.512 14.1158C53.1276 14.0029 51.0098 13.4072 48.8549 13.2982C47.3203 10.913 47.4163 8.9506 47.4395 8.67338L50.521 5.2447C50.9634 5.28987 53.7611 5.60836 55.3142 6.49298L55.3134 6.4922ZM48.7528 2.83147C47.8339 3.19435 46.912 3.6756 46.2027 4.07586C47.1185 3.4085 48.1433 2.8852 49.2463 2.53945C48.9709 2.68507 48.8008 2.79877 48.7528 2.83225V2.83147ZM43.8358 8.31439C43.6038 8.53165 42.555 9.60161 41.8627 11.7407C42.0685 9.41939 43.0191 7.31063 44.4709 5.65742C43.8614 6.9641 43.8328 8.04729 43.8358 8.31361V8.31439ZM54.3528 18.7538C54.3474 18.3473 54.2886 16.0205 53.6853 14.2965C54.0418 14.0122 55.6716 12.6619 56.988 10.7276C58.4723 11.2073 60.2142 11.5196 60.5793 11.5819C60.7061 11.9159 61.2847 13.5738 61.2909 15.9878C59.5389 18.5498 58.3586 19.3433 58.1861 19.4508C55.7064 19.6057 54.5771 18.9119 54.3536 18.753L54.3528 18.7538ZM62.308 16.3367L61.5384 15.9497C61.526 13.4399 60.9211 11.7742 60.8028 11.4713C61.2909 10.2643 61.492 8.91166 61.5484 8.46468C61.6876 8.51141 61.9181 8.59551 62.1773 8.71465C62.6723 9.94502 62.9461 11.2891 62.9461 12.6962C62.9461 13.9749 62.721 15.2013 62.308 16.3375V16.3367ZM62.0365 8.37903C61.7944 8.27935 61.6033 8.21705 61.5213 8.19136C60.1121 6.06547 58.4553 4.84445 58.224 4.68014C57.9456 4.09766 57.4885 3.57047 57.0599 3.16087C59.2628 4.26041 61.0333 6.11141 62.0373 8.37903H62.0365ZM56.264 2.80422C56.7451 3.18501 57.5356 3.88974 57.9541 4.69883C56.6376 5.23614 55.6607 6.0312 55.4008 6.2547C53.7889 5.35372 51.0346 5.0438 50.5512 4.99474C50.0484 3.94893 49.3151 3.22394 49.0189 2.95685C49.2904 2.7902 49.954 2.42187 50.8745 2.16879C51.3672 2.09792 51.8699 2.05977 52.382 2.05977C53.7518 2.05977 55.0613 2.32375 56.2633 2.80344L56.264 2.80422ZM43.6162 18.623L43.6649 18.6183L43.5907 18.4579C43.3006 17.8342 43.323 17.0547 43.3555 16.6856C43.7013 16.9238 44.5382 17.3771 45.9188 17.3771C46.1462 17.3771 46.3891 17.3638 46.6459 17.3366C46.7573 17.5219 47.0875 18.053 47.5609 18.6588C48.09 19.3355 48.9098 20.2435 49.8403 20.7777C49.7266 21.7277 49.8017 22.3678 49.8473 22.6279C49.6454 22.6591 49.1891 22.7035 48.561 22.6108C46.5376 21.8173 44.8143 20.4133 43.617 18.6246L43.6162 18.623ZM51.1568 23.2587C50.8397 23.159 50.432 22.9791 50.1064 22.663C50.0755 22.5134 49.9618 21.857 50.0855 20.8151C50.528 20.7247 52.5019 20.2653 54.2283 18.9734C54.4997 19.1642 55.4689 19.7257 57.4745 19.7257C57.6733 19.7257 57.8829 19.7194 58.1026 19.7077C58.1428 20.9739 57.6524 21.6421 57.6478 21.6483L57.5117 21.8251L57.7507 21.8508C56.1766 22.7899 54.3412 23.3295 52.3827 23.3295C51.9682 23.3295 51.5598 23.3046 51.1576 23.2579L51.1568 23.2587Z" fill="#6FAA54" stroke="#6FAA54"/>
</svg>
